<svg width="32" height="32" viewBox="0 0 32 32" fill="none" xmlns="http://www.w3.org/2000/svg">
<g clip-path="url(#clip0_201_50)">
<mask id="mask0_201_50" style="mask-type:luminance" maskUnits="userSpaceOnUse" x="0" y="0" width="32" height="32">
<path d="M32 0H0V32H32V0Z" fill="white"/>
</mask>
<g mask="url(#mask0_201_50)">
<path d="M15.2506 13.4228C15.2506 13.613 15.227 13.827 15.1563 14.041C15.0856 14.255 14.9913 14.469 14.8263 14.6592C14.6612 14.8495 14.4727 15.0159 14.2369 15.1348C14.0012 15.2537 13.6947 15.325 13.3647 15.325H7.44773C7.32987 15.325 7.23556 15.3012 7.14128 15.2537C7.047 15.2061 6.95269 15.1586 6.88198 15.0872C6.81126 15.0159 6.7641 14.9446 6.71695 14.8257C6.66981 14.7306 6.64624 14.6355 6.64624 14.5166V7.45463C6.64624 7.33572 6.66981 7.24062 6.71695 7.1455C6.7641 7.0504 6.81126 6.95528 6.88198 6.88396C6.95269 6.81262 7.0234 6.76506 7.14128 6.71752C7.23556 6.66996 7.32987 6.64618 7.44773 6.64618H12.6575C12.8461 6.64618 13.0582 6.66996 13.2704 6.7413C13.4826 6.81262 13.6947 6.93152 13.8833 7.07418C14.0719 7.21684 14.2369 7.43084 14.3548 7.66863C14.4727 7.90639 14.5434 8.21551 14.5434 8.54839V8.83371C14.5434 9.11905 14.4962 9.40437 14.4019 9.73728C14.3076 10.0464 14.1662 10.3555 13.954 10.6408C14.119 10.7597 14.2841 10.8786 14.4491 11.045C14.6141 11.1877 14.732 11.3779 14.8498 11.5681C14.9677 11.7584 15.062 11.9962 15.1327 12.2577C15.2034 12.5193 15.227 12.7808 15.227 13.0899V13.4228H15.2506ZM13.6947 13.1137C13.6947 12.8997 13.6711 12.7333 13.6004 12.5668C13.5297 12.4004 13.4354 12.2577 13.3411 12.1388C13.2233 12.0199 13.0818 11.9248 12.9168 11.8773C12.7518 11.8297 12.5632 11.7822 12.3746 11.7822H8.83857V10.189H11.6438C11.856 10.189 12.021 10.1653 12.186 10.0939C12.351 10.0226 12.4925 9.95128 12.6103 9.83238C12.7282 9.7135 12.8225 9.57084 12.8697 9.40437C12.9404 9.23793 12.9639 9.04771 12.9639 8.85749V8.57217C12.9639 8.35817 12.8461 8.23929 12.6339 8.23929H8.22567V13.7557H13.3647C13.3883 13.7557 13.4354 13.7557 13.459 13.7557C13.5061 13.7557 13.5297 13.7319 13.5769 13.7081C13.6004 13.6844 13.6476 13.6606 13.6711 13.613C13.6947 13.5655 13.7183 13.4941 13.7183 13.4228V13.1137H13.6947Z" fill="#C6A15A"/>
<path d="M25.3065 11.7009C25.3065 12.2254 25.2124 12.7261 25.0244 13.1553C24.8361 13.5845 24.6011 13.9898 24.272 14.2998C23.9429 14.6097 23.5667 14.872 23.1436 15.0628C22.6969 15.2535 22.2267 15.325 21.7095 15.325H17.5014C17.3838 15.325 17.2898 15.3012 17.1958 15.2535C17.1017 15.2058 17.0077 15.1581 16.9372 15.0866C16.8666 15.0151 16.8196 14.9435 16.7726 14.8243C16.7491 14.7766 16.7256 14.6813 16.7256 14.562V7.45685C16.7256 7.33762 16.7491 7.24226 16.7961 7.14687C16.8431 7.05151 16.8902 6.95613 16.9607 6.88462C17.0312 6.81308 17.1017 6.76538 17.2193 6.71772C17.3133 6.67003 17.4073 6.64618 17.5249 6.64618H21.733C22.2502 6.64618 22.7204 6.74156 23.1671 6.90846C23.6137 7.09921 23.9899 7.33762 24.2955 7.67144C24.6247 7.98139 24.8598 8.38672 25.0478 8.8159C25.2358 9.2689 25.3299 9.74577 25.3299 10.2703V11.7009H25.3065ZM23.7313 10.2942C23.7313 9.98418 23.6843 9.69808 23.5902 9.45964C23.4962 9.19739 23.3551 8.9828 23.1671 8.8159C22.979 8.62516 22.7674 8.50593 22.5323 8.38672C22.2737 8.29134 22.0151 8.24367 21.7095 8.24367H18.2772V13.7752H21.7095C22.0151 13.7752 22.2973 13.7275 22.5323 13.6322C22.7909 13.5368 23.0025 13.3937 23.1671 13.203C23.3551 13.0122 23.4962 12.7977 23.5902 12.5592C23.6843 12.297 23.7313 12.0347 23.7313 11.7247V10.2942Z" fill="#C6A15A"/>
<path d="M15.2509 24.4559C15.2509 24.5717 15.2274 24.6645 15.1802 24.7571C15.1331 24.8497 15.0859 24.9425 15.0152 25.0119C14.9445 25.0814 14.8738 25.1277 14.7559 25.1742C14.6616 25.2205 14.5673 25.2437 14.4494 25.2437C14.3551 25.2437 14.2608 25.2205 14.1665 25.1974C14.0723 25.1511 13.978 25.1045 13.9072 25.0351L8.226 19.1504V25.1045H6.67017V17.3201C6.67017 17.1579 6.71731 17.0189 6.81159 16.903C6.9059 16.764 7.02376 16.6713 7.16521 16.625C7.30663 16.5555 7.47165 16.5555 7.6131 16.5787C7.77813 16.6018 7.89598 16.6713 8.01386 16.7872L13.7186 22.6256V16.6713H15.2745V24.4559H15.2509Z" fill="#C6A15A"/>
<path d="M25.3538 22.786C25.3538 23.0951 25.3067 23.3804 25.236 23.6182C25.1651 23.856 25.0472 24.0938 24.9294 24.284C24.8115 24.4742 24.6465 24.6407 24.4814 24.7595C24.3165 24.9023 24.1279 24.9973 23.9394 25.0923C23.7508 25.1876 23.5622 25.2351 23.3736 25.2826C23.185 25.3301 22.9964 25.3539 22.8314 25.3539H16.8202V23.7847H22.8314C23.1379 23.7847 23.3736 23.6895 23.5386 23.5231C23.7036 23.3566 23.7979 23.1189 23.7979 22.8098C23.7979 22.6671 23.7743 22.5244 23.7272 22.4055C23.6801 22.2866 23.6093 22.1915 23.5386 22.0964C23.4679 22.0013 23.35 21.93 23.2322 21.8824C23.1143 21.8111 22.9729 21.7873 22.8314 21.7873H19.2483C18.989 21.7873 18.7297 21.7397 18.4232 21.6446C18.1403 21.5495 17.8575 21.4068 17.6217 21.2166C17.386 21.0264 17.1738 20.7411 17.0088 20.432C16.8438 20.0991 16.7495 19.6948 16.7495 19.2431C16.7495 18.7675 16.8438 18.3633 17.0088 18.0542C17.1738 17.7213 17.386 17.4597 17.6217 17.2695C17.8575 17.0793 18.1403 16.9128 18.4232 16.8177C18.7061 16.7226 18.989 16.675 19.2483 16.675H24.5523V18.2444H19.2483C18.9418 18.2444 18.7297 18.3395 18.5647 18.506C18.3996 18.6962 18.3053 18.9339 18.3053 19.2193C18.3053 19.5284 18.3996 19.7662 18.5647 19.9326C18.7297 20.0991 18.9654 20.1942 19.2483 20.1942H22.8314H22.855C23.02 20.1942 23.2086 20.218 23.3972 20.2655C23.5857 20.3131 23.7743 20.3844 23.9629 20.4557C24.1515 20.5509 24.3165 20.646 24.5052 20.7886C24.6702 20.9313 24.8115 21.074 24.9531 21.2642C25.0944 21.4544 25.1888 21.6684 25.2595 21.9062C25.3067 22.1915 25.3538 22.4769 25.3538 22.786Z" fill="#C6A15A"/>
<path fill-rule="evenodd" clip-rule="evenodd" d="M-0.123047 -0.123047H32.1231V32.1231H-0.123047V-0.123047ZM0.615415 0.615415V31.3846H31.3846V0.615415H0.615415Z" fill="#C6A15A"/>
</g>
</g>
<defs>
<clipPath id="clip0_201_50">
<rect width="32" height="32" fill="white"/>
</clipPath>
</defs>
</svg>
