<svg width="192" height="192" viewBox="0 0 192 192" fill="none" xmlns="http://www.w3.org/2000/svg">
<g clip-path="url(#clip0_201_76)">
<mask id="mask0_201_76" style="mask-type:luminance" maskUnits="userSpaceOnUse" x="0" y="0" width="192" height="192">
<path d="M192 0H0V192H192V0Z" fill="white"/>
</mask>
<g mask="url(#mask0_201_76)">
<path d="M91.5029 80.5366C91.5029 81.6779 91.3615 82.962 90.9372 84.246C90.5129 85.53 89.9471 86.814 88.9571 87.9553C87.967 89.0966 86.8354 90.0953 85.421 90.8086C84.0066 91.5218 82.1679 91.9499 80.1877 91.9499H44.6859C43.9788 91.9499 43.4129 91.8072 42.8472 91.5218C42.2815 91.2366 41.7156 90.9512 41.2914 90.5232C40.8671 90.0953 40.5841 89.6672 40.3012 88.954C40.0184 88.3832 39.877 87.8126 39.877 87.0992V44.7276C39.877 44.0141 40.0184 43.4436 40.3012 42.8728C40.5841 42.3022 40.8671 41.7315 41.2914 41.3036C41.7156 40.8755 42.1399 40.5902 42.8472 40.3049C43.4129 40.0196 43.9788 39.8769 44.6859 39.8769H75.9444C77.076 39.8769 78.349 40.0196 79.622 40.4476C80.8949 40.8755 82.1679 41.589 83.2993 42.4449C84.4309 43.3009 85.421 44.5849 86.1281 46.0116C86.8354 47.4381 87.2597 49.2929 87.2597 51.2902V53.0021C87.2597 54.7141 86.9768 56.4261 86.4111 58.4235C85.8453 60.2781 84.9967 62.1327 83.7238 63.8448C84.7137 64.558 85.7039 65.2715 86.694 66.2701C87.6841 67.1261 88.3913 68.2674 89.0985 69.4087C89.8057 70.55 90.3715 71.9767 90.7958 73.546C91.2201 75.1153 91.3615 76.6847 91.3615 78.5393V80.5366H91.5029ZM82.1679 78.682C82.1679 77.398 82.0263 76.3994 81.6021 75.4007C81.1778 74.4021 80.6119 73.546 80.0462 72.8327C79.3391 72.1194 78.4904 71.5487 77.5003 71.2633C76.5101 70.9781 75.3787 70.6927 74.2472 70.6927H53.0309V61.1341H69.8625C71.1355 61.1341 72.1255 60.9914 73.1156 60.5635C74.1057 60.1354 74.9543 59.7075 75.6616 58.9941C76.3687 58.2808 76.9346 57.4249 77.2174 56.4261C77.6417 55.4274 77.7831 54.2861 77.7831 53.1448V51.4328C77.7831 50.1488 77.076 49.4356 75.803 49.4356H49.3535V82.5339H80.1877C80.3291 82.5339 80.6119 82.5339 80.7535 82.5339C81.0364 82.5339 81.1778 82.3914 81.4606 82.2487C81.6021 82.106 81.8849 81.9633 82.0263 81.6779C82.1679 81.3926 82.3093 80.9647 82.3093 80.5366V78.682H82.1679Z" fill="#C6A15A"/>
<path d="M151.839 70.2051C151.839 73.3525 151.274 76.3566 150.146 78.9317C149.016 81.5066 147.606 83.9386 145.632 85.7985C143.657 87.6582 141.4 89.2319 138.861 90.3763C136.181 91.5208 133.36 91.9499 130.257 91.9499H105.008C104.303 91.9499 103.738 91.8068 103.174 91.5208C102.61 91.2347 102.046 90.9485 101.623 90.5193C101.199 90.0902 100.917 89.661 100.635 88.9457C100.494 88.6596 100.353 88.0874 100.353 87.372V44.7409C100.353 44.0255 100.494 43.4534 100.776 42.8811C101.058 42.3089 101.34 41.7366 101.764 41.3075C102.187 40.8783 102.61 40.5921 103.315 40.3061C103.879 40.02 104.444 39.8769 105.149 39.8769H130.398C133.501 39.8769 136.322 40.4492 139.002 41.4506C141.682 42.595 143.939 44.0255 145.773 46.0284C147.748 47.8881 149.158 50.3201 150.286 52.8952C151.414 55.6132 151.979 58.4745 151.979 61.6217V70.2051H151.839ZM142.387 61.7648C142.387 59.9049 142.105 58.1883 141.541 56.7577C140.977 55.1841 140.13 53.8966 139.002 52.8952C137.874 51.7508 136.604 51.0354 135.194 50.3201C133.642 49.7478 132.09 49.4618 130.257 49.4618H109.663V82.6511H130.257C132.09 82.6511 133.783 82.3651 135.194 81.7928C136.745 81.2206 138.015 80.3622 139.002 79.2177C140.13 78.0733 140.977 76.7859 141.541 75.3552C142.105 73.7816 142.387 72.208 142.387 70.3482V61.7648Z" fill="#C6A15A"/>
<path d="M91.5058 146.736C91.5058 147.43 91.3644 147.987 91.0815 148.542C90.7987 149.098 90.5157 149.655 90.0914 150.072C89.6671 150.488 89.2428 150.766 88.5355 151.045C87.9698 151.323 87.404 151.462 86.6969 151.462C86.131 151.462 85.5653 151.323 84.9995 151.184C84.4337 150.906 83.868 150.627 83.4436 150.211L49.3562 114.902V150.627H40.0212V103.92C40.0212 102.947 40.3041 102.113 40.8698 101.418C41.4356 100.584 42.1428 100.028 42.9915 99.7501C43.84 99.333 44.8302 99.333 45.6789 99.4721C46.669 99.6111 47.3761 100.028 48.0834 100.723L82.3121 135.754V100.028H91.6472V146.736H91.5058Z" fill="#C6A15A"/>
<path d="M152.123 136.716C152.123 138.57 151.84 140.282 151.416 141.709C150.991 143.136 150.284 144.562 149.577 145.704C148.869 146.845 147.879 147.844 146.889 148.557C145.899 149.413 144.768 149.984 143.636 150.554C142.505 151.125 141.373 151.41 140.242 151.695C139.11 151.981 137.979 152.123 136.989 152.123H100.922V142.708H136.989C138.827 142.708 140.242 142.137 141.232 141.138C142.222 140.14 142.788 138.713 142.788 136.858C142.788 136.002 142.646 135.146 142.363 134.433C142.081 133.72 141.656 133.149 141.232 132.578C140.808 132.008 140.1 131.58 139.393 131.294C138.686 130.866 137.837 130.724 136.989 130.724H115.49C113.934 130.724 112.378 130.438 110.54 129.868C108.842 129.297 107.145 128.441 105.731 127.3C104.316 126.158 103.043 124.446 102.053 122.592C101.063 120.594 100.497 118.169 100.497 115.458C100.497 112.605 101.063 110.179 102.053 108.325C103.043 106.328 104.316 104.758 105.731 103.617C107.145 102.475 108.842 101.477 110.54 100.906C112.237 100.335 113.934 100.05 115.49 100.05H147.314V109.466H115.49C113.651 109.466 112.378 110.037 111.388 111.036C110.398 112.177 109.832 113.603 109.832 115.316C109.832 117.17 110.398 118.597 111.388 119.596C112.378 120.594 113.793 121.165 115.49 121.165H136.989H137.13C138.12 121.165 139.252 121.308 140.383 121.593C141.515 121.878 142.646 122.306 143.778 122.734C144.909 123.305 145.899 123.876 147.031 124.732C148.021 125.588 148.869 126.444 149.719 127.585C150.567 128.726 151.133 130.01 151.557 131.437C151.84 133.149 152.123 134.861 152.123 136.716Z" fill="#C6A15A"/>
<path fill-rule="evenodd" clip-rule="evenodd" d="M-0.738525 -0.738464H192.738V192.738H-0.738525V-0.738464ZM3.69224 3.6923V188.308H188.308V3.6923H3.69224Z" fill="#C6A15A"/>
</g>
</g>
<defs>
<clipPath id="clip0_201_76">
<rect width="192" height="192" fill="white"/>
</clipPath>
</defs>
</svg>
