<svg width="64" height="64" viewBox="0 0 64 64" fill="none" xmlns="http://www.w3.org/2000/svg">
<g clip-path="url(#clip0_201_63)">
<mask id="mask0_201_63" style="mask-type:luminance" maskUnits="userSpaceOnUse" x="0" y="0" width="64" height="64">
<path d="M64 0H0V64H64V0Z" fill="white"/>
</mask>
<g mask="url(#mask0_201_63)">
<path d="M30.5011 26.8455C30.5011 27.226 30.454 27.654 30.3126 28.082C30.1711 28.51 29.9825 28.938 29.6525 29.3184C29.3225 29.6989 28.9453 30.0318 28.4738 30.2695C28.0024 30.5073 27.3895 30.65 26.7294 30.65H14.8955C14.6597 30.65 14.4711 30.6024 14.2826 30.5073C14.094 30.4122 13.9054 30.3171 13.764 30.1744C13.6225 30.0318 13.5282 29.8891 13.4339 29.6513C13.3396 29.4611 13.2925 29.2709 13.2925 29.0331V14.9092C13.2925 14.6714 13.3396 14.4812 13.4339 14.2909C13.5282 14.1007 13.6225 13.9105 13.764 13.7679C13.9054 13.6252 14.0468 13.5301 14.2826 13.435C14.4711 13.3399 14.6597 13.2923 14.8955 13.2923H25.315C25.6922 13.2923 26.1165 13.3399 26.5408 13.4825C26.9651 13.6252 27.3895 13.863 27.7666 14.1483C28.1438 14.4336 28.4738 14.8616 28.7095 15.3372C28.9453 15.8127 29.0867 16.431 29.0867 17.0967V17.6674C29.0867 18.238 28.9924 18.8087 28.8039 19.4745C28.6153 20.0927 28.3324 20.7109 27.9081 21.2816C28.2381 21.5193 28.5681 21.7572 28.8982 22.09C29.2282 22.3754 29.4639 22.7558 29.6997 23.1362C29.9354 23.5167 30.124 23.9922 30.2654 24.5153C30.4069 25.0384 30.454 25.5616 30.454 26.1798V26.8455H30.5011ZM27.3895 26.2273C27.3895 25.7993 27.3423 25.4665 27.2009 25.1336C27.0594 24.8007 26.8708 24.5153 26.6822 24.2776C26.4465 24.0398 26.1636 23.8496 25.8336 23.7544C25.5035 23.6594 25.1264 23.5642 24.7492 23.5642H17.6771V20.378H23.2877C23.712 20.378 24.042 20.3305 24.372 20.1878C24.7021 20.0451 24.9849 19.9025 25.2207 19.6647C25.4564 19.4269 25.645 19.1416 25.7393 18.8087C25.8807 18.4758 25.9279 18.0954 25.9279 17.7149V17.1443C25.9279 16.7163 25.6922 16.4785 25.2678 16.4785H16.4513V27.5113H26.7294C26.7765 27.5113 26.8708 27.5113 26.918 27.5113C27.0123 27.5113 27.0594 27.4638 27.1537 27.4162C27.2009 27.3687 27.2951 27.3211 27.3423 27.226C27.3895 27.1309 27.4366 26.9882 27.4366 26.8455V26.2273H27.3895Z" fill="#C6A15A"/>
<path d="M50.613 23.4017C50.613 24.4508 50.4248 25.4522 50.0488 26.3106C49.6723 27.1689 49.2021 27.9795 48.544 28.5995C47.8858 29.2194 47.1335 29.744 46.2871 30.1254C45.3938 30.5069 44.4534 30.65 43.419 30.65H35.0028C34.7677 30.65 34.5796 30.6023 34.3915 30.5069C34.2035 30.4116 34.0154 30.3162 33.8743 30.1731C33.7333 30.0301 33.6393 29.887 33.5452 29.6486C33.4982 29.5532 33.4512 29.3625 33.4512 29.124V14.9136C33.4512 14.6752 33.4982 14.4845 33.5923 14.2937C33.6863 14.103 33.7803 13.9122 33.9214 13.7692C34.0624 13.6261 34.2035 13.5307 34.4385 13.4354C34.6266 13.34 34.8147 13.2923 35.0498 13.2923H43.466C44.5005 13.2923 45.4408 13.4831 46.3342 13.8169C47.2275 14.1983 47.9798 14.6752 48.591 15.3428C49.2494 15.9627 49.7196 16.7734 50.0956 17.6317C50.4716 18.5377 50.6598 19.4915 50.6598 20.5406V23.4017H50.613ZM47.4626 20.5883C47.4626 19.9683 47.3686 19.3961 47.1805 18.9192C46.9924 18.3947 46.7103 17.9655 46.3342 17.6317C45.958 17.2503 45.5349 17.0118 45.0647 16.7734C44.5475 16.5826 44.0302 16.4873 43.419 16.4873H36.5544V27.5504H43.419C44.0302 27.5504 44.5945 27.455 45.0647 27.2643C45.5819 27.0735 46.005 26.7874 46.3342 26.4059C46.7103 26.0244 46.9924 25.5953 47.1805 25.1184C47.3686 24.5939 47.4626 24.0693 47.4626 23.4494V20.5883Z" fill="#C6A15A"/>
<path d="M30.5021 48.9118C30.5021 49.1433 30.4549 49.329 30.3607 49.5142C30.2664 49.6993 30.172 49.885 30.0306 50.0239C29.8892 50.1628 29.7478 50.2554 29.512 50.3484C29.3234 50.441 29.1348 50.4873 28.8991 50.4873C28.7105 50.4873 28.5219 50.441 28.3333 50.3947C28.1447 50.3021 27.9562 50.2091 27.8147 50.0702L16.4522 38.3007V50.2091H13.3406V34.6401C13.3406 34.3158 13.4349 34.0377 13.6234 33.8061C13.812 33.528 14.0478 33.3427 14.3307 33.25C14.6135 33.111 14.9436 33.111 15.2265 33.1574C15.5565 33.2037 15.7922 33.3427 16.028 33.5744L27.4375 45.2512V33.3427H30.5492V48.9118H30.5021Z" fill="#C6A15A"/>
<path d="M50.7079 45.5719C50.7079 46.1901 50.6135 46.7608 50.4722 47.2363C50.3304 47.7119 50.0947 48.1875 49.859 48.5679C49.6233 48.9483 49.2932 49.2813 48.9631 49.5189C48.6333 49.8045 48.2561 49.9945 47.879 50.1846C47.5018 50.3751 47.1246 50.4701 46.7474 50.5652C46.3702 50.6602 45.9931 50.7077 45.6631 50.7077H33.6407V47.5692H45.6631C46.276 47.5692 46.7474 47.379 47.0775 47.0461C47.4075 46.7132 47.5961 46.2377 47.5961 45.6195C47.5961 45.3341 47.5489 45.0488 47.4546 44.811C47.3604 44.5732 47.2189 44.383 47.0775 44.1928C46.936 44.0025 46.7003 43.8599 46.4646 43.7648C46.2288 43.6221 45.946 43.5745 45.6631 43.5745H38.4968C37.9782 43.5745 37.4596 43.4794 36.8467 43.2892C36.2809 43.099 35.7152 42.8136 35.2437 42.4332C34.7722 42.0527 34.3479 41.4821 34.0179 40.8638C33.6879 40.1981 33.4993 39.3896 33.4993 38.4861C33.4993 37.5349 33.6879 36.7265 34.0179 36.1083C34.3479 35.4425 34.7722 34.9194 35.2437 34.5389C35.7152 34.1585 36.2809 33.8256 36.8467 33.6354C37.4124 33.4452 37.9782 33.35 38.4968 33.35H49.1049V36.4887H38.4968C37.8839 36.4887 37.4596 36.6789 37.1295 37.0119C36.7995 37.3923 36.6109 37.8678 36.6109 38.4385C36.6109 39.0567 36.7995 39.5323 37.1295 39.8652C37.4596 40.1981 37.931 40.3883 38.4968 40.3883H45.6631H45.7102C46.0402 40.3883 46.4174 40.4359 46.7946 40.531C47.1717 40.6261 47.5489 40.7688 47.9261 40.9114C48.3033 41.1017 48.6333 41.2919 49.0105 41.5772C49.3406 41.8625 49.6233 42.1479 49.9064 42.5283C50.1891 42.9088 50.3778 43.3368 50.5192 43.8123C50.6135 44.383 50.7079 44.9537 50.7079 45.5719Z" fill="#C6A15A"/>
<path fill-rule="evenodd" clip-rule="evenodd" d="M-0.246094 -0.246155H64.2462V64.2462H-0.246094V-0.246155ZM1.23083 1.23077V62.7692H62.7693V1.23077H1.23083Z" fill="#C6A15A"/>
</g>
</g>
<defs>
<clipPath id="clip0_201_63">
<rect width="64" height="64" fill="white"/>
</clipPath>
</defs>
</svg>
